<svg width="16" height="16" viewBox="0 0 16 16" fill="none" xmlns="http://www.w3.org/2000/svg">
<g clip-path="url(#clip0_133_8314)">
<path d="M11.9211 12.8647C10.7486 13.6084 9.38827 14.0023 7.99978 14C4.40511 14 1.41444 11.4134 0.787109 8.00004C1.0738 6.44719 1.85486 5.02864 3.01378 3.95604L0.927776 1.87204L1.87111 0.928711L15.0704 14.1287L14.1271 15.0714L11.9204 12.8647H11.9211ZM3.95644 4.90004C3.05045 5.72377 2.41932 6.8059 2.14844 8.00004C2.35664 8.91102 2.77462 9.76081 3.36911 10.4818C3.9636 11.2027 4.71819 11.775 5.57281 12.1529C6.42743 12.5309 7.35847 12.7041 8.29184 12.6588C9.2252 12.6135 10.1351 12.351 10.9491 11.892L9.59711 10.54C9.02157 10.9026 8.33991 11.0588 7.66393 10.983C6.98796 10.9072 6.3578 10.604 5.87682 10.123C5.39584 9.64202 5.09259 9.01186 5.01682 8.33589C4.94104 7.65991 5.09723 6.97825 5.45978 6.40271L3.95644 4.90004ZM8.60911 9.55204L6.44778 7.39071C6.32915 7.69267 6.30123 8.02268 6.36745 8.34027C6.43366 8.65787 6.59112 8.94923 6.82052 9.17863C7.04992 9.40803 7.34129 9.5655 7.65888 9.63171C7.97647 9.69792 8.30649 9.67 8.60844 9.55138L8.60911 9.55204ZM13.8711 11.0614L12.9171 10.108C13.3628 9.47291 13.68 8.75683 13.8511 8.00004C13.6699 7.20653 13.3293 6.45814 12.8499 5.80037C12.3705 5.14261 11.7623 4.5892 11.0624 4.17378C10.3624 3.75837 9.5853 3.48962 8.77827 3.38389C7.97123 3.27815 7.15111 3.33763 6.36778 3.55871L5.31578 2.50671C6.14711 2.18004 7.05311 2.00004 7.99978 2.00004C11.5944 2.00004 14.5851 4.58671 15.2124 8.00004C15.0082 9.11051 14.549 10.1584 13.8711 11.0614V11.0614ZM7.81511 5.00538C8.23945 4.97915 8.66452 5.04342 9.06214 5.19392C9.45976 5.34442 9.82085 5.57772 10.1215 5.87834C10.4221 6.17897 10.6554 6.54006 10.8059 6.93768C10.9564 7.3353 11.0207 7.76037 10.9944 8.18471L7.81444 5.00538H7.81511Z" fill="#636E72"/>
</g>
<defs>
<clipPath id="clip0_133_8314">
<rect width="16" height="16" fill="white"/>
</clipPath>
</defs>
</svg>
